#!OML:ASF E:\Style4\Style4.ASF
:FULLY-SPECIFIED
:DEGREES
1249
root 0.178371 17.2233 -0.931239 1.80041 16.7201 0.655012
lowerback 15.4371 4.43774 -0.323306
upperback 10.9913 5.91617 -0.285774
thorax 3.07137 3.02494 -0.84509
lowerneck 10.1789 -2.0316 -7.58655
upperneck 3.02425 -3.43267 3.4798
head -0.590696 -1.80783 2.55365
rclavicle -6.57977e-014 2.14687e-014
rhumerus 16.3412 16.9645 -84.5959
rradius 129.277
rwrist 18.6595
rhand 36.2493 -13.5994
rfingers 7.12502
rthumb 59.2201 -28.1732
lclavicle -6.57977e-014 2.14687e-014
lhumerus 27.9213 -18.1085 77.4084
lradius 129.595
lwrist -17.1404
lhand 24.9009 46.8403
lfingers 7.12502
lthumb 49.0701 68.538
rfemur -20.8795 -17.3404 17.5973
rtibia 46.5807
rfoot -24.6215 -21.3741
rtoes -10.628
lfemur -25.9793 -5.5922 -20.4185
ltibia 45.723
lfoot -20.3765 4.7607
ltoes -16.5216
1250
root 0.185773 17.224 -0.930081 1.7967 16.5524 0.682861
lowerback 15.2349 4.22291 -0.837523
upperback 11.0669 5.57579 0.0306328
thorax 3.17136 2.81181 -0.172255
lowerneck 10.0595 -1.71453 -8.32785
upperneck 3.02817 -3.08582 3.41039
head -0.581205 -1.64039 2.65521
rclavicle -2.04748e-014 -2.78299e-015
rhumerus 17.0077 18.103 -84.244
rradius 129.247
rwrist 18.3458
rhand 36.2644 -13.5582
rfingers 7.12502
rthumb 59.2331 -28.1192
lclavicle -2.04748e-014 -2.78299e-015
lhumerus 26.5562 -17.1422 77.8049
lradius 129.53
lwrist -17.2742
lhand 25.0448 47.0297
lfingers 7.12502
lthumb 49.2023 68.6615
rfemur -20.8749 -17.285 17.5392
rtibia 46.5493
rfoot -24.5227 -21.3224
rtoes -10.6323
lfemur -25.9041 -5.54503 -20.4746
ltibia 45.6775
lfoot -20.419 4.84112
ltoes -16.2521
1251
root 0.192607 17.2247 -0.930441 1.80764 16.38 0.741465
lowerback 15.3746 4.70742 -0.159523
upperback 11.0546 6.29096 -0.411962
thorax 3.21277 3.22792 -1.10186
lowerneck 9.94711 -2.45651 -6.70095
upperneck 3.00533 -3.88501 3.49932
head -0.544042 -2.02437 2.40467
rclavicle -3.73715e-014 1.90833e-014
rhumerus 17.1991 16.4 -84.5035
rradius 129.341
rwrist 18.6327
rhand 36.0079 -13.102
rfingers 7.12502
rthumb 59.0117 -27.8795
lclavicle -3.73715e-014 1.90833e-014
lhumerus 26.1732 -18.9584 77.6199
lradius 129.283
lwrist -17.0526
lhand 25.5088 46.8278
lfingers 7.12502
lthumb 49.6279 68.2438
rfemur -20.8864 -17.2139 17.4509
rtibia 46.5214
rfoot -24.5093 -21.22
rtoes -10.6038
lfemur -25.8633 -5.46858 -20.5602
ltibia 45.6462
lfoot -20.4272 4.93167
ltoes -16.1596
1252
root 0.201243 17.2278 -0.931459 1.79319 16.2502 0.688834
lowerback 15.2871 4.5952 -0.309765
upperback 11.0711 6.12518 -0.266041
thorax 3.23936 3.1295 -0.839954
lowerneck 9.94251 -2.34696 -7.04501
upperneck 2.94302 -3.7768 3.56687
head -0.562871 -1.97426 2.48847
rclavicle -6.63941e-014 1.55052e-014
rhumerus 17.779 16.8969 -84.3203
rradius 129.316
rwrist 18.5657
rhand 35.4612 -12.9611
rfingers 7.12502
rthumb 58.5382 -28.1896
lclavicle -6.63941e-014 1.55052e-014
lhumerus 24.8957 -18.8832 77.9788
lradius 129.119
lwrist -17.007
lhand 26.077 47.0644
lfingers 7.12502
lthumb 50.1481 68.2091
rfemur -20.8753 -17.1715 17.4712
rtibia 46.4803
rfoot -24.5281 -21.1062
rtoes -10.6357
lfemur -25.8408 -5.39411 -20.5338
ltibia 45.6314
lfoot -20.4433 5.02734
ltoes -16.383
1253
root 0.209953 17.229 -0.932516 1.80363 16.1239 0.662603
lowerback 15.3007 4.63029 -0.207147
upperback 11.035 6.18146 -0.320388
thorax 3.21121 3.16505 -0.962464
lowerneck 9.97691 -2.46687 -6.76241
upperneck 2.86546 -3.90754 3.64142
head -0.589835 -2.03781 2.46731
rclavicle 1.1947e-013 -8.70677e-014
rhumerus 18.2163 16.7033 -84.3571
rradius 129.229
rwrist 18.6844
rhand 34.7073 -12.8659
rfingers 7.12502
rthumb 57.8819 -28.6928
lclavicle 1.1947e-013 -8.70677e-014
lhumerus 23.8566 -19.7021 78.1432
lradius 129.073
lwrist -16.8988
lhand 26.2382 47.5949
lfingers 7.12502
lthumb 50.2954 68.6612
rfemur -20.8829 -17.13 17.4672
rtibia 46.4448
rfoot -24.5292 -20.9635
rtoes -10.4363
lfemur -25.8209 -5.3147 -20.5384
ltibia 45.6293
lfoot -20.4847 5.09897
ltoes -16.4513
1254
root 0.218352 17.2286 -0.934269 1.7986 15.9875 0.691744
lowerback 15.3194 4.68356 -0.175511
upperback 11.0375 6.25438 -0.361582
thorax 3.21408 3.20493 -1.03269
lowerneck 9.97399 -2.60758 -6.39618
upperneck 2.79079 -4.05481 3.59839
head -0.612035 -2.10689 2.39118
rclavicle -1.47101e-014 -1.47101e-014
rhumerus 18.6728 16.4645 -84.3689
rradius 129.034
rwrist 18.8649
rhand 34.4296 -12.4112
rfingers 7.12502
rthumb 57.6391 -28.4521
lclavicle -1.47101e-014 -1.47101e-014
lhumerus 23.0358 -20.3272 78.3438
lradius 129.185
lwrist -16.8284
lhand 26.144 48.0743
lfingers 7.12502
lthumb 50.2094 69.1864
rfemur -20.8636 -17.0661 17.4004
rtibia 46.4076
rfoot -24.45 -20.9041
rtoes -10.4017
lfemur -25.7741 -5.25398 -20.6046
ltibia 45.6321
lfoot -20.5937 5.26555
ltoes -16.8624
1255
root 0.225655 17.2277 -0.936811 1.78033 15.8678 0.689652
lowerback 15.2483 4.69299 -0.205568
upperback 11.0947 6.26435 -0.308642
thorax 3.30416 3.20639 -0.952838
lowerneck 10.0103 -2.68726 -6.27008
upperneck 2.6203 -4.14914 3.50525
head -0.671727 -2.15022 2.34387
rclavicle 7.73272e-014 -2.46493e-014
rhumerus 19.1932 16.3496 -84.2817
rradius 128.817
rwrist 18.9649
rhand 34.103 -11.9178
rfingers 7.12502
rthumb 57.3531 -28.2058
lclavicle 7.73272e-014 -2.46493e-014
lhumerus 22.4669 -20.5572 78.5277
lradius 129.359
lwrist -16.5809
lhand 26.5232 48.6399
lfingers 7.12502
lthumb 50.5558 69.5659
rfemur -20.8526 -17.0074 17.3694
rtibia 46.3793
rfoot -24.3515 -20.9183
rtoes -10.7672
lfemur -25.7487 -5.17589 -20.6338
ltibia 45.6481
lfoot -20.6794 5.38705
ltoes -17.2714
1256
root 0.233214 17.2267 -0.939041 1.72986 15.7894 0.688955
lowerback 15.1852 4.68877 -0.224666
upperback 11.1755 6.25873 -0.266778
thorax 3.41803 3.20147 -0.887925
lowerneck 10.0216 -2.76375 -6.2386
upperneck 2.48783 -4.2476 3.48246
head -0.711978 -2.19768 2.33617
rclavicle -9.34288e-014 1.63003e-014
rhumerus 19.7133 16.1928 -84.2491
rradius 128.552
rwrist 19.0657
rhand 33.5754 -11.8531
rfingers 7.12502
rthumb 56.8895 -28.5307
lclavicle -9.34288e-014 1.63003e-014
lhumerus 22.0723 -20.8399 78.5802
lradius 129.499
lwrist -16.4501
lhand 26.9938 49.1324
lfingers 7.12502
lthumb 50.9851 69.8221
rfemur -20.8088 -16.9842 17.3209
rtibia 46.3736
rfoot -24.2938 -20.9202
rtoes -11.0398
lfemur -25.6931 -5.13399 -20.6675
ltibia 45.6627
lfoot -20.6635 5.31684
ltoes -16.7418
1257
root 0.240208 17.2249 -0.942655 1.67025 15.7478 0.658946
lowerback 15.1751 4.69302 -0.198555
upperback 11.2341 6.26816 -0.22631
thorax 3.48539 3.20671 -0.856906
lowerneck 9.99001 -2.85068 -6.27879
upperneck 2.45571 -4.36456 3.53874
head -0.70887 -2.25676 2.36531
rclavicle -1.13307e-014 -1.43125e-014
rhumerus 20.2075 15.9359 -84.3186
rradius 128.125
rwrist 19.198
rhand 33.19 -11.7177
rfingers 7.12502
rthumb 56.5498 -28.6727
lclavicle -1.13307e-014 -1.43125e-014
lhumerus 21.887 -21.2575 78.5322
lradius 129.636
lwrist -16.116
lhand 26.8242 49.4943
lfingers 7.12502
lthumb 50.8305 70.2698
rfemur -20.7674 -16.9775 17.3054
rtibia 46.382
rfoot -24.299 -20.8928
rtoes -10.9236
lfemur -25.6542 -5.09166 -20.6719
ltibia 45.6942
lfoot -20.6387 5.26645
ltoes -16.3234
1258
root 0.245433 17.2219 -0.947858 1.70936 15.7413 0.738044
lowerback 15.1244 4.69783 -0.292012
upperback 11.2759 6.26547 -0.199141
thorax 3.54427 3.1991 -0.7704
lowerneck 9.94588 -2.91911 -6.34772
upperneck 2.45586 -4.45966 3.55749
head -0.694361 -2.3046 2.38556
rclavicle 4.29375e-014 -1.55052e-014
rhumerus 20.8299 15.7426 -84.0845
rradius 127.717
rwrist 19.3237
rhand 32.4819 -11.6311
rfingers 7.12502
rthumb 55.9234 -29.0801
lclavicle 4.29375e-014 -1.55052e-014
lhumerus 21.9177 -21.5069 78.5519
lradius 129.84
lwrist -15.5199
lhand 26.8769 49.7656
lfingers 7.12502
lthumb 50.8785 70.5146
rfemur -20.832 -16.9735 17.2012
rtibia 46.4255
rfoot -24.2419 -20.9272
rtoes -11.044
lfemur -25.7052 -5.08281 -20.7778
ltibia 45.7373
lfoot -20.6625 5.27174
ltoes -16.2595
